<svg width="249" height="31" viewBox="0 0 249 31" fill="none" xmlns="http://www.w3.org/2000/svg">
<path d="M28.0341 11.8182H20.0227C19.9659 11.1553 19.8144 10.554 19.5682 10.0142C19.3314 9.47443 19 9.01042 18.5739 8.62216C18.1572 8.22443 17.6506 7.9214 17.054 7.71307C16.4574 7.49526 15.7803 7.38636 15.0227 7.38636C13.697 7.38636 12.5748 7.70833 11.6562 8.35227C10.7472 8.99621 10.0559 9.91951 9.58239 11.1222C9.11837 12.3248 8.88636 13.7689 8.88636 15.4545C8.88636 17.2348 9.12311 18.7263 9.59659 19.929C10.0795 21.1222 10.7756 22.0218 11.6847 22.6278C12.5938 23.2244 13.6875 23.5227 14.9659 23.5227C15.6951 23.5227 16.3485 23.4328 16.9261 23.2528C17.5038 23.0634 18.0057 22.7936 18.4318 22.4432C18.858 22.0928 19.2036 21.6714 19.4688 21.179C19.7434 20.6771 19.928 20.1136 20.0227 19.4886L28.0341 19.5455C27.9394 20.7765 27.5938 22.0312 26.9972 23.3097C26.4006 24.5786 25.553 25.7528 24.4545 26.8324C23.3655 27.9025 22.0161 28.7642 20.4062 29.4176C18.7964 30.071 16.9261 30.3977 14.7955 30.3977C12.125 30.3977 9.72917 29.8248 7.60795 28.679C5.49621 27.5331 3.82481 25.8475 2.59375 23.6222C1.37216 21.3968 0.761364 18.6742 0.761364 15.4545C0.761364 12.2159 1.38636 9.48864 2.63636 7.27273C3.88636 5.04735 5.57197 3.36648 7.69318 2.23011C9.81439 1.08428 12.1818 0.511363 14.7955 0.511363C16.6326 0.511363 18.3229 0.762309 19.8665 1.2642C21.41 1.7661 22.7642 2.5 23.929 3.46591C25.0938 4.42235 26.0313 5.60133 26.7415 7.00284C27.4517 8.40436 27.8826 10.0095 28.0341 11.8182ZM42.2422 30.3977C39.8748 30.3977 37.8482 29.929 36.1626 28.9915C34.477 28.0445 33.1844 26.7282 32.2848 25.0426C31.3852 23.3475 30.9354 21.3826 30.9354 19.1477C30.9354 16.9129 31.3852 14.9527 32.2848 13.267C33.1844 11.572 34.477 10.2557 36.1626 9.31818C37.8482 8.37121 39.8748 7.89773 42.2422 7.89773C44.6096 7.89773 46.6361 8.37121 48.3217 9.31818C50.0073 10.2557 51.3 11.572 52.1996 13.267C53.0992 14.9527 53.549 16.9129 53.549 19.1477C53.549 21.3826 53.0992 23.3475 52.1996 25.0426C51.3 26.7282 50.0073 28.0445 48.3217 28.9915C46.6361 29.929 44.6096 30.3977 42.2422 30.3977ZM42.299 24.6023C42.9619 24.6023 43.5348 24.3797 44.0178 23.9347C44.5007 23.4896 44.8748 22.8551 45.1399 22.0312C45.4051 21.2074 45.5376 20.2273 45.5376 19.0909C45.5376 17.9451 45.4051 16.965 45.1399 16.1506C44.8748 15.3267 44.5007 14.6922 44.0178 14.2472C43.5348 13.8021 42.9619 13.5795 42.299 13.5795C41.5982 13.5795 40.9969 13.8021 40.495 14.2472C39.9931 14.6922 39.6096 15.3267 39.3445 16.1506C39.0793 16.965 38.9467 17.9451 38.9467 19.0909C38.9467 20.2273 39.0793 21.2074 39.3445 22.0312C39.6096 22.8551 39.9931 23.4896 40.495 23.9347C40.9969 24.3797 41.5982 24.6023 42.299 24.6023ZM76.674 15.2841H69.4581C69.4202 14.839 69.264 14.4555 68.9893 14.1335C68.7147 13.8116 68.3596 13.5653 67.924 13.3949C67.4979 13.215 67.0244 13.125 66.5036 13.125C65.8312 13.125 65.2536 13.2481 64.7706 13.4943C64.2876 13.7405 64.0509 14.0909 64.0604 14.5455C64.0509 14.8674 64.1882 15.1657 64.4723 15.4403C64.7659 15.715 65.3293 15.928 66.1626 16.0795L70.5945 16.875C72.8293 17.2822 74.4912 17.9687 75.5803 18.9347C76.6787 19.8911 77.2327 21.1742 77.2422 22.7841C77.2327 24.3371 76.7687 25.6866 75.8501 26.8324C74.9411 27.9687 73.6958 28.8494 72.1143 29.4744C70.5424 30.09 68.7479 30.3977 66.7308 30.3977C63.3975 30.3977 60.7886 29.7159 58.9041 28.3523C57.0291 26.9886 55.9827 25.1894 55.7649 22.9545H63.549C63.6532 23.6458 63.9941 24.1809 64.5717 24.5597C65.1589 24.929 65.8975 25.1136 66.7876 25.1136C67.5073 25.1136 68.0992 24.9905 68.5632 24.7443C69.0367 24.4981 69.2782 24.1477 69.2876 23.6932C69.2782 23.2765 69.0698 22.9451 68.6626 22.6989C68.2649 22.4527 67.6399 22.2538 66.7876 22.1023L62.924 21.4205C60.6986 21.0322 59.032 20.2936 57.924 19.2045C56.8161 18.1155 56.2668 16.714 56.2763 15C56.2668 13.4848 56.6645 12.2017 57.4695 11.1506C58.2839 10.09 59.4439 9.28504 60.9496 8.7358C62.4647 8.17708 64.2592 7.89773 66.3331 7.89773C69.4865 7.89773 71.9723 8.55114 73.7905 9.85795C75.6181 11.1648 76.5793 12.9735 76.674 15.2841ZM80.2464 30V8.18182H87.6896V12.3295H87.9169C88.3714 10.9659 89.148 9.88636 90.2464 9.09091C91.3449 8.29545 92.6518 7.89773 94.1669 7.89773C95.701 7.89773 97.022 8.30492 98.13 9.11932C99.2379 9.92424 99.9055 10.9943 100.133 12.3295H100.36C100.729 10.9943 101.515 9.92424 102.718 9.11932C103.921 8.30492 105.332 7.89773 106.951 7.89773C109.044 7.89773 110.739 8.57008 112.036 9.91477C113.343 11.2595 113.996 13.0492 113.996 15.2841V30H106.156V17.2727C106.156 16.3163 105.914 15.5682 105.431 15.0284C104.948 14.4792 104.299 14.2045 103.485 14.2045C102.68 14.2045 102.041 14.4792 101.567 15.0284C101.103 15.5682 100.871 16.3163 100.871 17.2727V30H93.3714V17.2727C93.3714 16.3163 93.13 15.5682 92.647 15.0284C92.1641 14.4792 91.5154 14.2045 90.701 14.2045C90.1612 14.2045 89.6972 14.3277 89.3089 14.5739C88.9207 14.8201 88.6177 15.1752 88.3999 15.6392C88.1915 16.0937 88.0874 16.6383 88.0874 17.2727V30H80.2464ZM128.375 30.3977C126.008 30.3977 123.981 29.929 122.295 28.9915C120.61 28.0445 119.317 26.7282 118.418 25.0426C117.518 23.3475 117.068 21.3826 117.068 19.1477C117.068 16.9129 117.518 14.9527 118.418 13.267C119.317 11.572 120.61 10.2557 122.295 9.31818C123.981 8.37121 126.008 7.89773 128.375 7.89773C130.742 7.89773 132.769 8.37121 134.455 9.31818C136.14 10.2557 137.433 11.572 138.332 13.267C139.232 14.9527 139.682 16.9129 139.682 19.1477C139.682 21.3826 139.232 23.3475 138.332 25.0426C137.433 26.7282 136.14 28.0445 134.455 28.9915C132.769 29.929 130.742 30.3977 128.375 30.3977ZM128.432 24.6023C129.095 24.6023 129.668 24.3797 130.151 23.9347C130.634 23.4896 131.008 22.8551 131.273 22.0312C131.538 21.2074 131.67 20.2273 131.67 19.0909C131.67 17.9451 131.538 16.965 131.273 16.1506C131.008 15.3267 130.634 14.6922 130.151 14.2472C129.668 13.8021 129.095 13.5795 128.432 13.5795C127.731 13.5795 127.13 13.8021 126.628 14.2472C126.126 14.6922 125.742 15.3267 125.477 16.1506C125.212 16.965 125.08 17.9451 125.08 19.0909C125.08 20.2273 125.212 21.2074 125.477 22.0312C125.742 22.8551 126.126 23.4896 126.628 23.9347C127.13 24.3797 127.731 24.6023 128.432 24.6023ZM157.182 15.4545V21.3636H143.545V15.4545H157.182ZM174.859 8.18182V13.8636H160.484V8.18182H174.859ZM163.268 2.95455H171.109V22.983C171.109 23.286 171.161 23.5417 171.266 23.75C171.37 23.9489 171.531 24.1004 171.749 24.2045C171.966 24.2992 172.246 24.3466 172.587 24.3466C172.823 24.3466 173.098 24.3182 173.411 24.2614C173.732 24.2045 173.969 24.1572 174.121 24.1193L175.257 29.6307C174.907 29.7348 174.405 29.8627 173.751 30.0142C173.107 30.1657 172.34 30.2652 171.45 30.3125C169.651 30.4072 168.141 30.2225 166.919 29.7585C165.697 29.285 164.779 28.5417 164.163 27.5284C163.548 26.5152 163.25 25.2462 163.268 23.7216V2.95455ZM188.279 30.3977C185.95 30.3977 183.942 29.9527 182.256 29.0625C180.58 28.1629 179.288 26.875 178.379 25.1989C177.479 23.5133 177.029 21.4962 177.029 19.1477C177.029 16.8939 177.484 14.9242 178.393 13.2386C179.302 11.553 180.585 10.2415 182.242 9.30398C183.899 8.36648 185.855 7.89773 188.109 7.89773C189.756 7.89773 191.248 8.15341 192.583 8.66477C193.918 9.17614 195.059 9.91951 196.006 10.8949C196.953 11.8608 197.683 13.035 198.194 14.4176C198.705 15.8002 198.961 17.358 198.961 19.0909V20.9091H179.472V16.5909H191.745C191.736 15.9659 191.575 15.4167 191.262 14.9432C190.959 14.4602 190.547 14.0862 190.026 13.821C189.515 13.5464 188.933 13.4091 188.279 13.4091C187.645 13.4091 187.062 13.5464 186.532 13.821C186.002 14.0862 185.576 14.4555 185.254 14.929C184.941 15.4025 184.775 15.9564 184.756 16.5909V21.25C184.756 21.9508 184.903 22.5758 185.197 23.125C185.49 23.6742 185.912 24.1051 186.461 24.4176C187.01 24.7301 187.673 24.8864 188.45 24.8864C188.989 24.8864 189.482 24.8106 189.927 24.6591C190.381 24.5076 190.77 24.2898 191.092 24.0057C191.414 23.7121 191.65 23.3617 191.802 22.9545H198.961C198.715 24.4697 198.132 25.786 197.214 26.9034C196.295 28.0114 195.078 28.8731 193.563 29.4886C192.058 30.0947 190.296 30.3977 188.279 30.3977ZM212.672 30.3977C210.304 30.3977 208.278 29.929 206.592 28.9915C204.907 28.0445 203.614 26.7282 202.714 25.0426C201.815 23.3475 201.365 21.3826 201.365 19.1477C201.365 16.9129 201.815 14.9527 202.714 13.267C203.614 11.572 204.907 10.2557 206.592 9.31818C208.278 8.37121 210.304 7.89773 212.672 7.89773C214.812 7.89773 216.663 8.28598 218.226 9.0625C219.798 9.82955 221.015 10.9186 221.876 12.3295C222.738 13.7311 223.174 15.3788 223.183 17.2727H215.911C215.806 16.1269 215.475 15.2557 214.916 14.6591C214.367 14.053 213.657 13.75 212.786 13.75C212.104 13.75 211.507 13.9489 210.996 14.3466C210.484 14.7348 210.087 15.3267 209.803 16.1222C209.518 16.9081 209.376 17.8977 209.376 19.0909C209.376 20.2841 209.518 21.2784 209.803 22.0739C210.087 22.8598 210.484 23.4517 210.996 23.8494C211.507 24.2377 212.104 24.4318 212.786 24.4318C213.363 24.4318 213.875 24.2992 214.32 24.0341C214.765 23.7595 215.125 23.3617 215.399 22.8409C215.683 22.3106 215.854 21.6667 215.911 20.9091H223.183C223.155 22.8314 222.714 24.5076 221.862 25.9375C221.01 27.358 219.803 28.4564 218.24 29.233C216.687 30.0095 214.831 30.3977 212.672 30.3977ZM234.259 17.7273V30H226.418V0.90909H233.975V12.3295H234.202C234.695 10.9375 235.514 9.85322 236.66 9.0767C237.806 8.29072 239.183 7.89773 240.793 7.89773C242.337 7.89773 243.677 8.24811 244.813 8.94886C245.959 9.64962 246.844 10.6155 247.469 11.8466C248.104 13.0777 248.416 14.4886 248.407 16.0795V30H240.566V17.7273C240.576 16.6477 240.306 15.8002 239.756 15.1847C239.217 14.5691 238.445 14.2614 237.441 14.2614C236.807 14.2614 236.248 14.4034 235.765 14.6875C235.291 14.9621 234.922 15.3598 234.657 15.8807C234.401 16.392 234.269 17.0076 234.259 17.7273Z" fill="white"/>
</svg>
