<svg width="221" height="31" viewBox="0 0 221 31" fill="none" xmlns="http://www.w3.org/2000/svg">
<path d="M0.875 30V0.90909H21.8409V7.27273H8.77273V12.2727H20.7614V18.6364H8.77273V23.6364H21.7841V30H0.875ZM40.1896 15.4545V21.3636H26.5533V15.4545H40.1896ZM44.8558 30V8.18182H52.299V12.3295H52.5263C52.9808 10.9659 53.7573 9.88636 54.8558 9.09091C55.9543 8.29545 57.2611 7.89773 58.7763 7.89773C60.3104 7.89773 61.6314 8.30492 62.7393 9.11932C63.8473 9.92424 64.5149 10.9943 64.7422 12.3295H64.9695C65.3388 10.9943 66.1248 9.92424 67.3274 9.11932C68.5301 8.30492 69.9411 7.89773 71.5604 7.89773C73.6532 7.89773 75.3482 8.57008 76.6456 9.91477C77.9524 11.2595 78.6058 13.0492 78.6058 15.2841V30H70.7649V17.2727C70.7649 16.3163 70.5234 15.5682 70.0405 15.0284C69.5575 14.4792 68.9089 14.2045 68.0945 14.2045C67.2895 14.2045 66.6503 14.4792 66.1768 15.0284C65.7128 15.5682 65.4808 16.3163 65.4808 17.2727V30H57.9808V17.2727C57.9808 16.3163 57.7393 15.5682 57.2564 15.0284C56.7734 14.4792 56.1248 14.2045 55.3104 14.2045C54.7706 14.2045 54.3066 14.3277 53.9183 14.5739C53.5301 14.8201 53.227 15.1752 53.0092 15.6392C52.8009 16.0937 52.6967 16.6383 52.6967 17.2727V30H44.8558ZM88.5526 30.3409C87.1605 30.3409 85.9295 30.1136 84.8594 29.6591C83.7988 29.1951 82.9654 28.4943 82.3594 27.5568C81.7533 26.6193 81.4503 25.4261 81.4503 23.9773C81.4503 22.7841 81.6539 21.7661 82.0611 20.9233C82.4683 20.071 83.0365 19.375 83.7656 18.8352C84.4948 18.2955 85.3423 17.8835 86.3082 17.5994C87.2836 17.3153 88.3348 17.1307 89.4616 17.0455C90.6832 16.9508 91.6634 16.8371 92.402 16.7045C93.1501 16.5625 93.6899 16.3684 94.0213 16.1222C94.3527 15.8665 94.5185 15.5303 94.5185 15.1136V15.0568C94.5185 14.4886 94.3007 14.053 93.8651 13.75C93.4295 13.447 92.8707 13.2955 92.1889 13.2955C91.4408 13.2955 90.83 13.4612 90.3565 13.7926C89.8925 14.1146 89.6132 14.6117 89.5185 15.2841H82.3026C82.3973 13.9583 82.8187 12.7367 83.5668 11.6193C84.3243 10.4924 85.4276 9.5928 86.8764 8.92045C88.3253 8.23864 90.134 7.89773 92.3026 7.89773C93.8651 7.89773 95.2666 8.08239 96.5071 8.4517C97.7476 8.81155 98.8035 9.31818 99.6747 9.97159C100.546 10.6155 101.209 11.3731 101.663 12.2443C102.127 13.1061 102.359 14.0436 102.359 15.0568V30H95.0298V26.9318H94.8594C94.4238 27.7462 93.8935 28.4044 93.2685 28.9062C92.6529 29.4081 91.9474 29.7727 91.152 30C90.366 30.2273 89.4995 30.3409 88.5526 30.3409ZM91.1094 25.3977C91.706 25.3977 92.2647 25.2746 92.7855 25.0284C93.3158 24.7822 93.7467 24.4271 94.0781 23.9631C94.4096 23.4991 94.5753 22.9356 94.5753 22.2727V20.4545C94.367 20.5398 94.1444 20.6203 93.9077 20.696C93.6804 20.7718 93.4342 20.8428 93.169 20.9091C92.9134 20.9754 92.6387 21.0369 92.3452 21.0938C92.0611 21.1506 91.7628 21.2027 91.4503 21.25C90.8442 21.3447 90.3471 21.5009 89.9588 21.7188C89.58 21.9271 89.2959 22.1875 89.1065 22.5C88.9266 22.803 88.8366 23.1439 88.8366 23.5227C88.8366 24.1288 89.0497 24.5928 89.4759 24.9148C89.902 25.2367 90.4465 25.3977 91.1094 25.3977ZM113.947 17.7273V30H106.106V8.18182H113.549V12.3295H113.776C114.25 10.947 115.083 9.86269 116.276 9.0767C117.479 8.29072 118.88 7.89773 120.481 7.89773C122.024 7.89773 123.364 8.25284 124.501 8.96307C125.647 9.66383 126.532 10.6297 127.157 11.8608C127.791 13.0919 128.104 14.4981 128.094 16.0795V30H120.254V17.7273C120.263 16.6477 119.988 15.8002 119.43 15.1847C118.88 14.5691 118.113 14.2614 117.129 14.2614C116.485 14.2614 115.921 14.4034 115.438 14.6875C114.965 14.9621 114.6 15.3598 114.344 15.8807C114.089 16.392 113.956 17.0076 113.947 17.7273ZM144.977 8.18182V13.8636H130.602V8.18182H144.977ZM133.386 2.95455H141.227V22.983C141.227 23.286 141.279 23.5417 141.383 23.75C141.487 23.9489 141.648 24.1004 141.866 24.2045C142.084 24.2992 142.363 24.3466 142.704 24.3466C142.941 24.3466 143.215 24.3182 143.528 24.2614C143.85 24.2045 144.086 24.1572 144.238 24.1193L145.374 29.6307C145.024 29.7348 144.522 29.8627 143.869 30.0142C143.225 30.1657 142.458 30.2652 141.567 30.3125C139.768 30.4072 138.258 30.2225 137.036 29.7585C135.815 29.285 134.896 28.5417 134.281 27.5284C133.665 26.5152 133.367 25.2462 133.386 23.7216V2.95455ZM156.486 17.7273V30H148.645V0.90909H156.202V12.3295H156.429C156.921 10.9375 157.741 9.85322 158.886 9.0767C160.032 8.29072 161.41 7.89773 163.02 7.89773C164.563 7.89773 165.903 8.24811 167.04 8.94886C168.186 9.64962 169.071 10.6155 169.696 11.8466C170.33 13.0777 170.643 14.4886 170.634 16.0795V30H162.793V17.7273C162.802 16.6477 162.532 15.8002 161.983 15.1847C161.443 14.5691 160.671 14.2614 159.668 14.2614C159.033 14.2614 158.474 14.4034 157.991 14.6875C157.518 14.9621 157.149 15.3598 156.884 15.8807C156.628 16.392 156.495 17.0076 156.486 17.7273ZM188.652 20.4545V8.18182H196.493V30H189.05V25.8523H188.822C188.349 27.2443 187.52 28.3333 186.337 29.1193C185.153 29.8958 183.747 30.2841 182.118 30.2841C180.593 30.2841 179.258 29.9337 178.112 29.233C176.976 28.5322 176.09 27.5663 175.456 26.3352C174.831 25.1042 174.514 23.6932 174.504 22.1023V8.18182H182.345V20.4545C182.355 21.5341 182.629 22.3816 183.169 22.9972C183.718 23.6127 184.485 23.9205 185.47 23.9205C186.124 23.9205 186.687 23.7831 187.161 23.5085C187.643 23.2244 188.013 22.8267 188.268 22.3153C188.534 21.7945 188.661 21.1742 188.652 20.4545ZM220.424 15.2841H213.208C213.17 14.839 213.014 14.4555 212.739 14.1335C212.465 13.8116 212.11 13.5653 211.674 13.3949C211.248 13.215 210.774 13.125 210.254 13.125C209.581 13.125 209.004 13.2481 208.521 13.4943C208.038 13.7405 207.801 14.0909 207.81 14.5455C207.801 14.8674 207.938 15.1657 208.222 15.4403C208.516 15.715 209.079 15.928 209.913 16.0795L214.344 16.875C216.579 17.2822 218.241 17.9687 219.33 18.9347C220.429 19.8911 220.983 21.1742 220.992 22.7841C220.983 24.3371 220.519 25.6866 219.6 26.8324C218.691 27.9687 217.446 28.8494 215.864 29.4744C214.292 30.09 212.498 30.3977 210.481 30.3977C207.147 30.3977 204.539 29.7159 202.654 28.3523C200.779 26.9886 199.733 25.1894 199.515 22.9545H207.299C207.403 23.6458 207.744 24.1809 208.322 24.5597C208.909 24.929 209.647 25.1136 210.538 25.1136C211.257 25.1136 211.849 24.9905 212.313 24.7443C212.787 24.4981 213.028 24.1477 213.038 23.6932C213.028 23.2765 212.82 22.9451 212.413 22.6989C212.015 22.4527 211.39 22.2538 210.538 22.1023L206.674 21.4205C204.449 21.0322 202.782 20.2936 201.674 19.2045C200.566 18.1155 200.017 16.714 200.026 15C200.017 13.4848 200.415 12.2017 201.219 11.1506C202.034 10.09 203.194 9.28504 204.7 8.7358C206.215 8.17708 208.009 7.89773 210.083 7.89773C213.237 7.89773 215.722 8.55114 217.54 9.85795C219.368 11.1648 220.329 12.9735 220.424 15.2841Z" fill="white"/>
</svg>
