<svg width="138" height="155" viewBox="0 0 138 155" fill="none" xmlns="http://www.w3.org/2000/svg">
<path d="M18.4625 72.1469C18.4625 73.2505 18.4988 74.3395 18.4479 75.4285C18.4189 76.0165 18.6294 76.3287 19.1304 76.6119C25.0546 79.9806 30.9644 83.371 36.8814 86.7543C47.4013 92.7729 57.9284 98.7915 68.4411 104.832C68.8985 105.093 69.1961 105.064 69.6317 104.817C84.7981 96.1198 99.979 87.4294 115.153 78.7464C115.312 78.652 115.443 78.4777 115.755 78.5576C115.755 78.8552 115.755 79.182 115.755 79.5014C115.755 87.0011 115.748 94.4935 115.77 101.993C115.77 102.603 115.603 102.944 115.065 103.249C104.691 109.188 94.3234 115.141 83.9559 121.095C79.186 123.832 74.4016 126.561 69.6462 129.328C69.1598 129.611 68.8404 129.574 68.3757 129.306C51.9534 119.868 35.531 110.444 19.1014 101.02C18.9416 100.926 18.8037 100.759 18.4625 100.817C18.4625 102.095 18.4552 103.394 18.4697 104.687C18.4697 105.122 18.8908 105.173 19.1594 105.333C26.2816 109.42 33.411 113.5 40.5405 117.581C49.8044 122.881 59.061 128.18 68.3176 133.502C68.8476 133.807 69.2179 133.807 69.7479 133.502C84.8199 124.855 99.8991 116.223 114.978 107.591C115.77 107.141 115.77 107.141 115.77 108.055C115.77 114.8 115.762 121.537 115.784 128.282C115.784 128.87 115.603 129.182 115.109 129.465C101.663 137.234 88.2176 145.017 74.7791 152.807C70.9313 155.036 67.1052 155.036 63.2501 152.821C44.2213 141.917 25.1998 131.012 6.15657 120.143C3.02021 118.35 0.878473 115.896 0.181503 112.295C0.0290404 111.518 0.00725889 110.742 0.00725889 109.958C0.00725889 87.8287 0.00726011 65.7072 0 43.5784C0 39.2731 1.78599 35.9698 5.4959 33.7772C9.45992 31.4322 13.4748 29.1598 17.446 26.822C17.9615 26.5171 18.2737 26.7277 18.6585 26.9455C27.2908 31.8896 35.9158 36.8337 44.5408 41.7779C52.4906 46.33 60.4477 50.8821 68.3902 55.4487C68.8404 55.71 69.1526 55.6882 69.5954 55.4269C86.0541 45.8798 102.52 36.3618 118.971 26.8075C119.632 26.4227 120.097 26.401 120.765 26.793C124.525 28.9928 128.308 31.1563 132.098 33.3053C135.082 35.0042 137.006 37.4654 137.681 40.8631C137.833 41.6399 137.87 42.4168 137.87 43.2008C137.877 65.3805 137.877 87.5601 137.87 109.747C137.87 114.016 136.047 117.283 132.366 119.454C128.272 121.864 124.148 124.209 120.046 126.612C119.443 126.968 119.393 126.816 119.393 126.206C119.407 108.498 119.4 90.7909 119.4 73.0907C119.4 72.1324 119.4 72.1251 118.558 72.6116C102.288 81.9263 86.025 91.2337 69.7624 100.563C69.2615 100.853 68.9202 100.861 68.4048 100.57C51.9461 91.1466 35.4729 81.7448 18.9997 72.3357C18.869 72.2268 18.7601 72.0598 18.4625 72.1469Z" fill="#196723"/>
<path d="M21.7439 25.6449C28.6483 21.6446 35.5091 17.6733 42.3771 13.6947C49.2888 9.69443 56.2076 5.6941 63.1193 1.68652C66.9308 -0.520553 70.7424 -0.578627 74.5757 1.61393C88.3191 9.48389 102.063 17.3538 115.813 25.2238C115.908 25.2746 116.002 25.34 116.075 25.3835C116.104 25.6957 115.849 25.6957 115.697 25.7828C100.349 34.6765 84.994 43.5556 69.6461 52.4492C69.2686 52.667 68.9854 52.805 68.5208 52.5363C52.9914 43.6282 37.4475 34.7418 21.9036 25.8482C21.8601 25.8336 21.8383 25.7683 21.7439 25.6449Z" fill="#196722"/>
</svg>
