<svg width="159" height="32" viewBox="0 0 159 32" fill="none" xmlns="http://www.w3.org/2000/svg">
<path d="M26.0455 1.90909V31H19.4545L8.94318 15.7159H8.77273V31H0.875V1.90909H7.57955L17.9205 17.1364H18.1477V1.90909H26.0455ZM40.3494 31.3977C38.0199 31.3977 36.0123 30.9527 34.3267 30.0625C32.6506 29.1629 31.358 27.875 30.4489 26.1989C29.5492 24.5133 29.0994 22.4962 29.0994 20.1477C29.0994 17.8939 29.554 15.9242 30.4631 14.2386C31.3722 12.553 32.6553 11.2415 34.3125 10.304C35.9697 9.36648 37.9252 8.89773 40.179 8.89773C41.8267 8.89773 43.3182 9.15341 44.6534 9.66477C45.9886 10.1761 47.1297 10.9195 48.0767 11.8949C49.0237 12.8608 49.7528 14.035 50.2642 15.4176C50.7756 16.8002 51.0312 18.358 51.0312 20.0909V21.9091H31.5426V17.5909H43.8153C43.8059 16.9659 43.6449 16.4167 43.3324 15.9432C43.0294 15.4602 42.6174 15.0862 42.0966 14.821C41.5852 14.5464 41.0028 14.4091 40.3494 14.4091C39.715 14.4091 39.1326 14.5464 38.6023 14.821C38.072 15.0862 37.6458 15.4555 37.3239 15.929C37.0114 16.4025 36.8456 16.9564 36.8267 17.5909V22.25C36.8267 22.9508 36.9735 23.5758 37.267 24.125C37.5606 24.6742 37.982 25.1051 38.5312 25.4176C39.0805 25.7301 39.7434 25.8864 40.5199 25.8864C41.0597 25.8864 41.5521 25.8106 41.9972 25.6591C42.4517 25.5076 42.84 25.2898 43.1619 25.0057C43.4839 24.7121 43.7206 24.3617 43.8722 23.9545H51.0312C50.785 25.4697 50.2027 26.786 49.2841 27.9034C48.3655 29.0114 47.1487 29.8731 45.6335 30.4886C44.1278 31.0947 42.3665 31.3977 40.3494 31.3977ZM68.3786 21.4545V9.18182H76.2195V31H68.7763V26.8523H68.549C68.0755 28.2443 67.2469 29.3333 66.0632 30.1193C64.8795 30.8958 63.4732 31.2841 61.8445 31.2841C60.3198 31.2841 58.9846 30.9337 57.8388 30.233C56.7024 29.5322 55.817 28.5663 55.1825 27.3352C54.5575 26.1042 54.2403 24.6932 54.2308 23.1023V9.18182H62.0717V21.4545C62.0812 22.5341 62.3558 23.3816 62.8956 23.9972C63.4448 24.6127 64.2119 24.9205 65.1967 24.9205C65.8501 24.9205 66.4136 24.7831 66.8871 24.5085C67.37 24.2244 67.7393 23.8267 67.995 23.3153C68.2602 22.7945 68.388 22.1742 68.3786 21.4545ZM100.151 16.2841H92.9347C92.8968 15.839 92.7405 15.4555 92.4659 15.1335C92.1913 14.8116 91.8362 14.5653 91.4006 14.3949C90.9744 14.215 90.5009 14.125 89.9801 14.125C89.3078 14.125 88.7301 14.2481 88.2472 14.4943C87.7642 14.7405 87.5275 15.0909 87.5369 15.5455C87.5275 15.8674 87.6648 16.1657 87.9489 16.4403C88.2424 16.715 88.8059 16.928 89.6392 17.0795L94.071 17.875C96.3059 18.2822 97.9678 18.9687 99.0568 19.9347C100.155 20.8911 100.709 22.1742 100.719 23.7841C100.709 25.3371 100.245 26.6866 99.3267 27.8324C98.4176 28.9687 97.1723 29.8494 95.5909 30.4744C94.0189 31.09 92.2244 31.3977 90.2074 31.3977C86.8741 31.3977 84.2652 30.7159 82.3807 29.3523C80.5057 27.9886 79.4593 26.1894 79.2415 23.9545H87.0256C87.1297 24.6458 87.4706 25.1809 88.0483 25.5597C88.6354 25.929 89.3741 26.1136 90.2642 26.1136C90.9839 26.1136 91.5758 25.9905 92.0398 25.7443C92.5133 25.4981 92.7547 25.1477 92.7642 24.6932C92.7547 24.2765 92.5464 23.9451 92.1392 23.6989C91.7415 23.4527 91.1165 23.2538 90.2642 23.1023L86.4006 22.4205C84.1752 22.0322 82.5085 21.2936 81.4006 20.2045C80.2926 19.1155 79.7434 17.714 79.7528 16C79.7434 14.4848 80.1411 13.2017 80.946 12.1506C81.7604 11.09 82.9205 10.285 84.4261 9.7358C85.9413 9.17708 87.7358 8.89773 89.8097 8.89773C92.9631 8.89773 95.4489 9.55114 97.267 10.858C99.0947 12.1648 100.056 13.9735 100.151 16.2841ZM114.234 31.3977C111.867 31.3977 109.84 30.929 108.155 29.9915C106.469 29.0445 105.177 27.7282 104.277 26.0426C103.377 24.3475 102.928 22.3826 102.928 20.1477C102.928 17.9129 103.377 15.9527 104.277 14.267C105.177 12.572 106.469 11.2557 108.155 10.3182C109.84 9.37121 111.867 8.89773 114.234 8.89773C116.602 8.89773 118.628 9.37121 120.314 10.3182C122 11.2557 123.292 12.572 124.192 14.267C125.091 15.9527 125.541 17.9129 125.541 20.1477C125.541 22.3826 125.091 24.3475 124.192 26.0426C123.292 27.7282 122 29.0445 120.314 29.9915C118.628 30.929 116.602 31.3977 114.234 31.3977ZM114.291 25.6023C114.954 25.6023 115.527 25.3797 116.01 24.9347C116.493 24.4896 116.867 23.8551 117.132 23.0312C117.397 22.2074 117.53 21.2273 117.53 20.0909C117.53 18.9451 117.397 17.965 117.132 17.1506C116.867 16.3267 116.493 15.6922 116.01 15.2472C115.527 14.8021 114.954 14.5795 114.291 14.5795C113.59 14.5795 112.989 14.8021 112.487 15.2472C111.985 15.6922 111.602 16.3267 111.337 17.1506C111.071 17.965 110.939 18.9451 110.939 20.0909C110.939 21.2273 111.071 22.2074 111.337 23.0312C111.602 23.8551 111.985 24.4896 112.487 24.9347C112.989 25.3797 113.59 25.6023 114.291 25.6023ZM141.791 9.18182V14.8636H127.189V9.18182H141.791ZM129.973 31V8.55682C129.973 6.75758 130.295 5.2661 130.939 4.08239C131.583 2.89867 132.492 2.01326 133.666 1.42614C134.84 0.839013 136.223 0.545453 137.814 0.545453C138.808 0.545453 139.774 0.621211 140.712 0.772727C141.659 0.924242 142.359 1.05682 142.814 1.17045L141.678 6.79545C141.393 6.71023 141.062 6.64394 140.683 6.59659C140.304 6.53977 139.973 6.51136 139.689 6.51136C138.95 6.51136 138.453 6.66761 138.197 6.98011C137.942 7.29261 137.814 7.70454 137.814 8.21591V31H129.973ZM157.828 9.18182V14.8636H143.453V9.18182H157.828ZM146.237 3.95455H154.078V23.983C154.078 24.286 154.13 24.5417 154.234 24.75C154.339 24.9489 154.5 25.1004 154.717 25.2045C154.935 25.2992 155.214 25.3466 155.555 25.3466C155.792 25.3466 156.067 25.3182 156.379 25.2614C156.701 25.2045 156.938 25.1572 157.089 25.1193L158.226 30.6307C157.875 30.7348 157.374 30.8627 156.72 31.0142C156.076 31.1657 155.309 31.2652 154.419 31.3125C152.62 31.4072 151.109 31.2225 149.888 30.7585C148.666 30.285 147.748 29.5417 147.132 28.5284C146.517 27.5152 146.218 26.2462 146.237 24.7216V3.95455Z" fill="white"/>
</svg>
