<?xml version="1.0" encoding="utf-8"?>
<!-- Generator: Adobe Illustrator 23.0.0, SVG Export Plug-In . SVG Version: 6.00 Build 0)  -->
<svg version="1.1" id="图层_1" xmlns="http://www.w3.org/2000/svg" xmlns:xlink="http://www.w3.org/1999/xlink" x="0px" y="0px"
	 viewBox="0 0 841.89 595.28" style="fill:#ffffff;" xml:space="preserve">
<g>
	<path d="M624.81,249.61c-0.45-13.91-1.34-24.92-2.67-33.05c-1.33-8.1-3.17-13.92-5.52-17.47c-2.33-3.53-5.41-6.33-9.19-8.42
		L337.95,23.57c-0.03-0.02-0.05-0.03-0.08-0.04c-3.1-1.64-5.88-2.98-8.3-4.02c-2.45-1.04-4.63-1.88-6.53-2.49
		c-1.89-0.62-3.6-1.04-5.16-1.26c-1.57-0.2-2.9-0.3-4.03-0.3c-2.21,0-4.15,1.05-5.83,3.12c-1.67,2.07-3.05,5.83-4.18,11.22
		c-1.11,5.41-1.89,12.99-2.33,22.76c-0.43,9.78-0.68,22.36-0.68,37.72c0,15.81,0.29,28.61,0.84,38.37
		c0.57,9.75,1.35,17.55,2.35,23.37c1,5.83,2.44,10.08,4.33,12.78c1.89,2.72,4.18,4.67,6.84,5.92l295.41,160.49
		c6.91,3.11,14.73-1.9,14.79-9.48c0.05-5.53,0.07-11.38,0.07-17.55C625.47,281.72,625.23,263.53,624.81,249.61z"/>
</g>
<path d="M599.27,410.43c2.58,4.57,1.1,10.36-3.36,13.12l-44.21,27.41l-213.8,132.58c-4.44,2.49-8.45,4.45-12.01,5.91
	s-6.12,2.3-7.68,2.51c-1.57,0.21-3.01,0.3-4.36,0.3c-2.21,0-4.15-1.13-5.83-3.43c-1.67-2.27-3.05-6.32-4.18-12.14
	c-1.11-5.83-1.89-13.82-2.33-24.02c-0.43-10.2-0.68-22.98-0.68-38.36c0-17.04,0.29-30.75,0.84-41.14
	c0.57-10.39,1.35-18.61,2.35-24.63c1-6.02,2.44-10.29,4.33-12.78c1.89-2.49,4.18-4.57,6.84-6.25l135.07-78.18
	c4.87-2.81,10.8-3.11,15.93-0.8l98.67,44.43L599.27,410.43L599.27,410.43z"/>
</svg>
