<svg width="198" height="30" viewBox="0 0 198 30" fill="none" xmlns="http://www.w3.org/2000/svg">
<path d="M5.26705 29L0.357955 9.36364H7.41477L9.66477 21.3295H9.81818L12.3239 9.36364H19.1761L21.7841 21.2273H21.9375L24.0852 9.36364H31.142L26.233 29H18.6136L15.8523 18.4659H15.6477L12.8864 29H5.26705ZM42.3984 29.358C40.2678 29.358 38.4439 28.9361 36.9268 28.0923C35.4098 27.2401 34.2464 26.0554 33.4368 24.5384C32.6271 23.0128 32.2223 21.2443 32.2223 19.233C32.2223 17.2216 32.6271 15.4574 33.4368 13.9403C34.2464 12.4148 35.4098 11.2301 36.9268 10.3864C38.4439 9.53409 40.2678 9.10795 42.3984 9.10795C44.5291 9.10795 46.353 9.53409 47.87 10.3864C49.3871 11.2301 50.5504 12.4148 51.3601 13.9403C52.1697 15.4574 52.5746 17.2216 52.5746 19.233C52.5746 21.2443 52.1697 23.0128 51.3601 24.5384C50.5504 26.0554 49.3871 27.2401 47.87 28.0923C46.353 28.9361 44.5291 29.358 42.3984 29.358ZM42.4496 24.142C43.0462 24.142 43.5618 23.9418 43.9964 23.5412C44.4311 23.1406 44.7678 22.5696 45.0064 21.8281C45.245 21.0866 45.3643 20.2045 45.3643 19.1818C45.3643 18.1506 45.245 17.2685 45.0064 16.5355C44.7678 15.794 44.4311 15.223 43.9964 14.8224C43.5618 14.4219 43.0462 14.2216 42.4496 14.2216C41.8189 14.2216 41.2777 14.4219 40.826 14.8224C40.3743 15.223 40.0291 15.794 39.7905 16.5355C39.5518 17.2685 39.4325 18.1506 39.4325 19.1818C39.4325 20.2045 39.5518 21.0866 39.7905 21.8281C40.0291 22.5696 40.3743 23.1406 40.826 23.5412C41.2777 23.9418 41.8189 24.142 42.4496 24.142ZM55.4382 29V9.36364H62.2905V13.0966H62.495C62.853 11.7159 63.4197 10.706 64.1953 10.0668C64.9794 9.42756 65.8956 9.10795 66.9439 9.10795C67.2507 9.10795 67.5533 9.13352 67.8516 9.18466C68.1584 9.22727 68.4524 9.29119 68.7337 9.37642V15.3977C68.3842 15.2784 67.9538 15.1889 67.4425 15.1293C66.9311 15.0696 66.4922 15.0398 66.1257 15.0398C65.4354 15.0398 64.8132 15.1974 64.2592 15.5128C63.7138 15.8196 63.2834 16.2543 62.968 16.8168C62.6527 17.3707 62.495 18.0227 62.495 18.7727V29H55.4382ZM78.1044 2.81818V29H71.0476V2.81818H78.1044ZM88.8079 29.2557C87.4102 29.2557 86.1232 28.8892 84.9471 28.1562C83.7795 27.4233 82.842 26.3111 82.1346 24.8196C81.4357 23.3281 81.0863 21.4489 81.0863 19.1818C81.0863 16.8125 81.4528 14.8864 82.1857 13.4034C82.9272 11.9205 83.8817 10.8338 85.0494 10.1435C86.2255 9.45312 87.4613 9.10795 88.7567 9.10795C89.7283 9.10795 90.5806 9.27841 91.3136 9.61932C92.0465 9.9517 92.6602 10.3991 93.1545 10.9616C93.6488 11.5156 94.0238 12.125 94.2795 12.7898H94.3817V2.81818H101.439V29H94.4329V25.7784H94.2795C94.0067 26.4432 93.6147 27.0398 93.1033 27.5682C92.6005 28.0881 91.9869 28.5014 91.2624 28.8082C90.5465 29.1065 89.7283 29.2557 88.8079 29.2557ZM91.4158 23.8352C92.0636 23.8352 92.6175 23.6477 93.0778 23.2727C93.5465 22.8892 93.9045 22.3523 94.1516 21.6619C94.4073 20.9631 94.5352 20.1364 94.5352 19.1818C94.5352 18.2102 94.4073 17.3793 94.1516 16.6889C93.9045 15.9901 93.5465 15.4574 93.0778 15.0909C92.6175 14.7159 92.0636 14.5284 91.4158 14.5284C90.7681 14.5284 90.2141 14.7159 89.7539 15.0909C89.3022 15.4574 88.9528 15.9901 88.7056 16.6889C88.467 17.3793 88.3477 18.2102 88.3477 19.1818C88.3477 20.1534 88.467 20.9886 88.7056 21.6875C88.9528 22.3778 89.3022 22.9105 89.7539 23.2855C90.2141 23.652 90.7681 23.8352 91.4158 23.8352ZM104.903 29V9.36364H111.755V13.0966H111.96C112.318 11.7159 112.885 10.706 113.66 10.0668C114.444 9.42756 115.36 9.10795 116.409 9.10795C116.716 9.10795 117.018 9.13352 117.316 9.18466C117.623 9.22727 117.917 9.29119 118.199 9.37642V15.3977C117.849 15.2784 117.419 15.1889 116.907 15.1293C116.396 15.0696 115.957 15.0398 115.591 15.0398C114.9 15.0398 114.278 15.1974 113.724 15.5128C113.179 15.8196 112.748 16.2543 112.433 16.8168C112.118 17.3707 111.96 18.0227 111.96 18.7727V29H104.903ZM128.797 29.358C126.7 29.358 124.893 28.9574 123.376 28.1562C121.868 27.3466 120.704 26.1875 119.886 24.679C119.076 23.1619 118.672 21.3466 118.672 19.233C118.672 17.2045 119.081 15.4318 119.899 13.9148C120.717 12.3977 121.872 11.2173 123.363 10.3736C124.855 9.52983 126.615 9.10795 128.643 9.10795C130.126 9.10795 131.468 9.33807 132.67 9.7983C133.872 10.2585 134.899 10.9276 135.751 11.8054C136.603 12.6747 137.26 13.7315 137.72 14.9759C138.18 16.2202 138.41 17.6222 138.41 19.1818V20.8182H120.87V16.9318H131.916C131.907 16.3693 131.762 15.875 131.481 15.4489C131.208 15.0142 130.838 14.6776 130.369 14.4389C129.909 14.1918 129.385 14.0682 128.797 14.0682C128.225 14.0682 127.701 14.1918 127.224 14.4389C126.747 14.6776 126.363 15.0099 126.074 15.4361C125.792 15.8622 125.643 16.3608 125.626 16.9318V21.125C125.626 21.7557 125.758 22.3182 126.022 22.8125C126.287 23.3068 126.666 23.6946 127.16 23.9759C127.654 24.2571 128.251 24.3977 128.95 24.3977C129.436 24.3977 129.879 24.3295 130.279 24.1932C130.689 24.0568 131.038 23.8608 131.328 23.6051C131.618 23.3409 131.831 23.0256 131.967 22.6591H138.41C138.189 24.0227 137.664 25.2074 136.838 26.2131C136.011 27.2102 134.916 27.9858 133.552 28.5398C132.197 29.0852 130.612 29.358 128.797 29.358ZM141.29 29V9.36364H147.989V13.0966H148.193C148.602 11.8693 149.301 10.8977 150.29 10.1818C151.278 9.46591 152.455 9.10795 153.818 9.10795C155.199 9.10795 156.388 9.47443 157.385 10.2074C158.382 10.9318 158.983 11.8949 159.188 13.0966H159.392C159.724 11.8949 160.432 10.9318 161.514 10.2074C162.597 9.47443 163.866 9.10795 165.324 9.10795C167.207 9.10795 168.733 9.71307 169.901 10.9233C171.077 12.1335 171.665 13.7443 171.665 15.7557V29H164.608V17.5455C164.608 16.6847 164.391 16.0114 163.956 15.5256C163.521 15.0312 162.938 14.7841 162.205 14.7841C161.48 14.7841 160.905 15.0312 160.479 15.5256C160.061 16.0114 159.852 16.6847 159.852 17.5455V29H153.102V17.5455C153.102 16.6847 152.885 16.0114 152.45 15.5256C152.016 15.0312 151.432 14.7841 150.699 14.7841C150.213 14.7841 149.795 14.8949 149.446 15.1165C149.097 15.3381 148.824 15.6577 148.628 16.0753C148.44 16.4844 148.347 16.9744 148.347 17.5455V29H141.29ZM175.145 29V9.36364H182.202V29H175.145ZM178.674 7.31818C177.719 7.31818 176.901 7.00284 176.219 6.37216C175.537 5.74148 175.196 4.98295 175.196 4.09659C175.196 3.21023 175.537 2.4517 176.219 1.82102C176.901 1.19034 177.719 0.875 178.674 0.875C179.637 0.875 180.455 1.19034 181.128 1.82102C181.81 2.4517 182.151 3.21023 182.151 4.09659C182.151 4.98295 181.81 5.74148 181.128 6.37216C180.455 7.00284 179.637 7.31818 178.674 7.31818ZM197.508 9.36364V14.4773H184.57V9.36364H197.508ZM187.076 4.65909H194.133V22.6847C194.133 22.9574 194.18 23.1875 194.273 23.375C194.367 23.554 194.512 23.6903 194.708 23.7841C194.904 23.8693 195.156 23.9119 195.462 23.9119C195.675 23.9119 195.923 23.8864 196.204 23.8352C196.494 23.7841 196.707 23.7415 196.843 23.7074L197.866 28.6676C197.55 28.7614 197.099 28.8764 196.511 29.0128C195.931 29.1491 195.241 29.2386 194.44 29.2812C192.82 29.3665 191.461 29.2003 190.362 28.7827C189.262 28.3565 188.435 27.6875 187.881 26.7756C187.327 25.8636 187.059 24.7216 187.076 23.3494V4.65909Z" fill="white"/>
</svg>
