<svg width="104" height="30" viewBox="0 0 104 30" fill="none" xmlns="http://www.w3.org/2000/svg">
<path d="M0.988636 30V25.625L14.7386 7.27273H1.04545V0.90909H24.7955V5.28409L11.0455 23.6364H24.7386V30H0.988636ZM28.6484 30V0.90909H49.6143V7.27273H36.5462V12.2727H48.5348V18.6364H36.5462V23.6364H49.5575V30H28.6484ZM53.5312 30V0.90909H66.0881C68.2472 0.90909 70.1364 1.33523 71.7557 2.1875C73.375 3.03977 74.6345 4.23769 75.5341 5.78125C76.4337 7.32481 76.8835 9.12879 76.8835 11.1932C76.8835 13.2765 76.4195 15.0805 75.4915 16.6051C74.5729 18.1297 73.2803 19.304 71.6136 20.1278C69.9564 20.9517 68.0199 21.3636 65.804 21.3636H58.304V15.2273H64.2131C65.1411 15.2273 65.9318 15.0663 66.5852 14.7443C67.2481 14.4129 67.7547 13.9441 68.1051 13.3381C68.465 12.732 68.6449 12.017 68.6449 11.1932C68.6449 10.3598 68.465 9.64962 68.1051 9.0625C67.7547 8.46591 67.2481 8.01136 66.5852 7.69886C65.9318 7.37689 65.1411 7.21591 64.2131 7.21591H61.429V30H53.5312ZM79.8949 30V25.625L93.6449 7.27273H79.9517V0.90909H103.702V5.28409L89.9517 23.6364H103.645V30H79.8949Z" fill="white"/>
</svg>
